<svg viewBox="0 0 22 22" fill="none" xmlns="http://www.w3.org/2000/svg">
<path d="M16.5 1.48853C18.1841 2.47878 19.5212 3.81594 20.5115 5.5C21.5017 7.18406 22 9.0195 22 11C22 12.9805 21.5017 14.8159 20.5115 16.5C19.5212 18.1841 18.1841 19.5212 16.5 20.5115C14.8159 21.5017 12.9805 22 11 22C9.0195 22 7.18406 21.5017 5.5 20.5115C3.81594 19.5212 2.47878 18.1841 1.48853 16.5C0.491972 14.8096 0 12.9805 0 11C0 9.0195 0.491972 7.18406 1.48853 5.5C2.47878 3.81594 3.81594 2.47878 5.5 1.48853C7.18406 0.49828 9.0195 0 11 0C12.9805 0 14.8096 0.49828 16.5 1.48853ZM6.1875 2.70585C4.7242 3.56365 3.56365 4.7242 2.70585 6.1875C1.84805 7.6508 1.41915 9.25287 1.41915 11C1.41915 12.7471 1.84805 14.3492 2.70585 15.8125C3.56365 17.2758 4.7242 18.4364 6.1875 19.2941C7.6508 20.1519 9.25287 20.5808 11 20.5808C12.7471 20.5808 14.3492 20.1519 15.8125 19.2941C17.2758 18.4364 18.4364 17.2758 19.2941 15.8125C20.1519 14.3492 20.5808 12.7471 20.5808 11C20.5808 9.25287 20.1519 7.6508 19.2941 6.1875C18.4364 4.7242 17.2695 3.56365 15.7936 2.70585C14.3177 1.84805 12.7156 1.41915 11.0063 1.41915C9.25287 1.41915 7.6508 1.84805 6.1875 2.70585ZM11.7317 13.504C11.8326 13.4031 11.8893 13.2769 11.8893 13.1256C11.8893 12.7408 12.0218 12.3876 12.2867 12.0596C12.4633 11.883 12.8039 11.6307 13.3085 11.3028C13.9581 10.8865 14.4186 10.5206 14.6835 10.1927C15.0998 9.68807 15.3016 9.06995 15.3016 8.332C15.3016 7.26605 14.8853 6.40826 14.0591 5.7586C13.2328 5.10894 12.211 4.78096 11 4.78096C10.0539 4.78096 9.24025 4.95757 8.55906 5.31078C7.99771 5.63876 7.44897 6.12443 6.91915 6.77408C6.83085 6.89392 6.79931 7.02638 6.83085 7.17144C6.86238 7.32282 6.93177 7.43635 7.05161 7.52466L7.62557 7.92202C7.74541 8.01032 7.87787 8.04186 8.02294 8.01032C8.168 7.97878 8.27523 7.92202 8.332 7.83371C8.68521 7.3922 9.06365 7.06422 9.46101 6.85608C9.85837 6.64794 10.3693 6.54702 10.9937 6.54702C11.82 6.54702 12.457 6.74255 12.8985 7.12099C13.3148 7.44897 13.5166 7.84633 13.5166 8.31938C13.5166 8.70413 13.3653 9.04472 13.0751 9.34117C12.9237 9.51777 12.6021 9.77007 12.0975 10.0981C11.4478 10.5143 10.9874 10.8675 10.7225 11.164C10.3062 11.6938 10.1044 12.3498 10.1044 13.113C10.1044 13.2643 10.1548 13.3842 10.262 13.4914C10.363 13.5986 10.4891 13.6491 10.6405 13.6491H11.3532C11.4983 13.6617 11.6244 13.6112 11.7317 13.504ZM11.883 15.0808C12.1164 15.3205 12.2362 15.6107 12.2362 15.9702C12.2362 16.3297 12.1164 16.6198 11.883 16.8595C11.6433 17.0992 11.3532 17.2127 10.9937 17.2127C10.6342 17.2127 10.344 17.0929 10.1044 16.8595C9.86468 16.6261 9.75115 16.3297 9.75115 15.9702C9.75115 15.6107 9.87099 15.3205 10.1044 15.0808C10.3377 14.8475 10.6342 14.7276 10.9937 14.7276C11.3532 14.7276 11.6497 14.8412 11.883 15.0808Z" fill="black"/>
</svg>
